<svg width="106" height="147" viewBox="0 0 106 147" fill="none" xmlns="http://www.w3.org/2000/svg">
<g clip-path="url(#clip0_505_371)">
<path d="M61.041 32.1348V28.3945L33.6549 38.4207L33.6551 30.7077L61.041 20.6817V16.9431L33.6551 26.9692L6.32178 16.9623V20.7011L10.5257 22.2402V29.9346L6.32178 28.3954V32.1546L33.6542 42.1614L61.041 32.1348Z" fill="white"/>
<path d="M44.1804 16.9248L35.7106 13.8455L33.6812 0.121582L31.652 13.8455L23.1826 16.9248L33.6814 20.7687L44.1804 16.9248Z" fill="white"/>
<path d="M0.000244141 133.974L33.6548 146.296V101.264L0.000244141 88.9428V133.974Z" fill="white"/>
<path d="M67.3096 36.2942L33.6549 48.6155L0 36.294V83.5532L33.6551 95.8745V52.3598L67.3096 40.0385V36.2942Z" fill="white"/>
<path d="M78.4772 74.9434L72.6885 77.0758V66.6868L77.7316 64.8405V60.6217L72.6885 62.4679V51.8781L78.2064 49.8578V45.4651L68.0742 49.1746V83.1326L78.4772 79.324V74.9434Z" fill="white"/>
<path d="M63.8671 50.7147L59.1538 52.4403V86.3984L63.8671 84.6727V50.7147Z" fill="white"/>
<path d="M51.99 89.0235L55.782 53.6748L51.492 55.2454L49.1063 81.2411L45.9991 57.2564L41.45 58.9219L45.921 91.243L51.99 89.0235Z" fill="white"/>
<path d="M90.4879 74.9268L93.349 52.3701L95.9392 72.931L101.486 70.9002L105.444 35.493L100.918 37.15L98.4038 63.5686L94.8869 39.3581L90.7997 40.8545L87.9362 67.3755L84.5302 43.1498L80.2332 44.723L84.9966 76.9372L90.4879 74.9268Z" fill="white"/>
<path d="M47.8372 118.306C47.6538 118.206 47.4482 118.152 47.2392 118.152C46.9746 118.151 46.7121 118.201 46.4657 118.298L44.2656 119.103V124.988L45.2694 124.62V122.321L46.4657 121.883C46.7423 121.783 47.0029 121.643 47.2392 121.467C47.4654 121.299 47.6667 121.1 47.8372 120.875C48.0005 120.66 48.1303 120.421 48.2219 120.167C48.31 119.92 48.3552 119.661 48.3556 119.399C48.3608 119.17 48.3151 118.943 48.2219 118.734C48.1411 118.555 48.0066 118.405 47.8372 118.306V118.306ZM47.0632 120.544C46.8662 120.782 46.6071 120.96 46.315 121.058L45.2688 121.441V119.615L46.315 119.233C46.4308 119.175 46.5574 119.143 46.6864 119.139C46.8154 119.135 46.9439 119.158 47.0632 119.208C47.1578 119.268 47.2336 119.353 47.2818 119.455C47.3299 119.556 47.3485 119.669 47.3352 119.781C47.3363 120.059 47.24 120.329 47.0632 120.544V120.544Z" fill="white"/>
<path d="M53.0305 121.778L54.1682 121.362L52.8301 119.429C53.2297 119.194 53.5668 118.865 53.8127 118.471C54.0426 118.11 54.1659 117.69 54.1682 117.261C54.1733 117.038 54.1289 116.816 54.0383 116.612C53.9589 116.435 53.8314 116.285 53.6705 116.178C53.495 116.068 53.2921 116.01 53.0852 116.011C52.8206 116.01 52.5582 116.06 52.3119 116.157L50.0364 116.99V122.875L51.0486 122.504V120.179L51.7845 119.91L53.0305 121.778ZM51.0486 117.499L52.1272 117.105C52.2426 117.048 52.3683 117.017 52.4965 117.012C52.6246 117.007 52.7523 117.029 52.8716 117.077C52.9668 117.132 53.0437 117.215 53.0928 117.314C53.1419 117.413 53.1611 117.525 53.148 117.635C53.1465 117.911 53.0487 118.178 52.8716 118.388C52.6761 118.627 52.4183 118.806 52.1272 118.905L51.0486 119.299V117.499Z" fill="white"/>
<path d="M58.1324 120.036C58.4427 119.922 58.7366 119.767 59.0062 119.575C59.2717 119.387 59.5083 119.16 59.7086 118.902C59.9081 118.645 60.0662 118.358 60.1771 118.051C60.2926 117.73 60.3507 117.392 60.3485 117.05V113.216L59.3446 113.583V117.36C59.3546 117.742 59.2433 118.117 59.0269 118.431C58.8036 118.738 58.4911 118.968 58.1324 119.09C57.7528 119.229 57.4559 119.227 57.2415 119.084C57.0272 118.941 56.9199 118.662 56.9196 118.247V114.471L55.9243 114.835V118.67C55.9136 118.971 55.9723 119.271 56.0958 119.545C56.196 119.76 56.3596 119.937 56.5643 120.054C56.7791 120.168 57.0199 120.223 57.2625 120.214C57.5603 120.203 57.8543 120.143 58.1324 120.036V120.036Z" fill="white"/>
<path d="M65.6757 116.959C66.0248 116.705 66.3349 116.401 66.5961 116.057C66.8596 115.709 67.0682 115.322 67.2148 114.91C67.3666 114.482 67.4429 114.03 67.4403 113.575C67.4539 113.171 67.3768 112.769 67.2148 112.399C67.0835 112.109 66.8696 111.864 66.6 111.695C66.3222 111.533 66.0053 111.45 65.6841 111.457C65.2978 111.462 64.9153 111.536 64.5546 111.675L62.4558 112.444V118.328L64.5466 117.564C64.949 117.416 65.3289 117.212 65.6757 116.959V116.959ZM63.4596 117.048V112.989L64.5216 112.601C64.7544 112.512 65.0006 112.464 65.2496 112.459C65.4597 112.454 65.6668 112.509 65.8471 112.618C66.028 112.737 66.1683 112.909 66.2495 113.111C66.3557 113.38 66.4055 113.668 66.3959 113.957C66.4025 114.408 66.301 114.854 66.1001 115.257C65.8993 115.66 65.6049 116.009 65.2419 116.273C65.0183 116.436 64.7734 116.568 64.514 116.663L63.4596 117.048Z" fill="white"/>
<path d="M72.9101 113.572L70.251 114.546V112.985L72.6592 112.103V111.199L70.251 112.081V110.52L72.9101 109.546V108.617L69.2468 109.958V115.842L72.9101 114.501V113.572Z" fill="white"/>
<path d="M75.8707 108.961L78.797 112.345L79.8434 111.962V106.078L78.8393 106.445V110.621L76.1465 107.432L74.8669 107.9V113.784L75.8707 113.417V108.961Z" fill="white"/>
<path d="M81.4155 106.441L83.3393 105.737V110.682L84.3431 110.316V105.37L86.2747 104.663V103.723L81.4155 105.502V106.441Z" fill="white"/>
<path d="M87.8469 109.032L88.8672 108.66V102.774L87.8469 103.148V109.032Z" fill="white"/>
<path d="M92.7236 101.362L90.4155 108.091L91.5623 107.671L92.1158 105.987L94.6249 105.069L95.1862 106.344L96.1921 105.976L93.8841 100.936L92.7236 101.362ZM92.4665 104.938L93.37 102.2L94.273 104.276L92.4665 104.938Z" fill="white"/>
<path d="M98.7448 99.158L97.7405 99.5255V105.41L101.463 104.046V103.103L98.7448 104.098V99.158Z" fill="white"/>
<path d="M48.6107 132.812C48.5097 133.007 48.3877 133.191 48.2467 133.36C48.0967 133.539 47.9255 133.699 47.7369 133.836C47.5316 133.985 47.3063 134.104 47.0677 134.189C46.8339 134.278 46.5856 134.323 46.3356 134.321C46.1137 134.32 45.8959 134.261 45.7038 134.149C45.5121 134.03 45.3594 133.857 45.265 133.651C45.1475 133.383 45.0916 133.093 45.1017 132.801C45.0992 132.462 45.1559 132.125 45.2693 131.805C45.4748 131.224 45.8474 130.716 46.3398 130.347C46.5592 130.181 46.8016 130.047 47.0593 129.951C47.2715 129.868 47.4956 129.819 47.7232 129.807C47.8954 129.8 48.0671 129.831 48.2262 129.897C48.3652 129.959 48.4859 130.057 48.5769 130.179C48.6711 130.308 48.7407 130.453 48.7823 130.607L49.7279 129.945C49.6642 129.721 49.5561 129.513 49.4102 129.332C49.2633 129.151 49.0735 129.011 48.8583 128.923C48.6079 128.827 48.3401 128.783 48.0721 128.796C47.7254 128.814 47.3839 128.887 47.0603 129.014C46.6594 129.163 46.283 129.372 45.9435 129.634C45.5838 129.907 45.2631 130.228 44.9902 130.589C44.7121 130.956 44.4882 131.363 44.3253 131.795C44.158 132.236 44.073 132.705 44.0744 133.177C44.0598 133.591 44.1425 134.003 44.3158 134.379C44.4593 134.68 44.6876 134.931 44.9721 135.102C45.2631 135.267 45.5917 135.354 45.926 135.354C46.3162 135.356 46.7034 135.284 47.0677 135.143C47.4314 135.013 47.7748 134.832 48.0876 134.604C48.3777 134.394 48.6429 134.151 48.878 133.88C49.0965 133.628 49.2832 133.351 49.4341 133.054C49.5715 132.786 49.678 132.503 49.7518 132.211L48.832 132.249C48.7778 132.444 48.7036 132.632 48.6107 132.812Z" fill="white"/>
<path d="M51.5249 133.389L55.1884 132.048V131.118L52.5286 132.091V130.53L54.9373 129.648V128.744L52.5286 129.626V128.065L55.1884 127.092V126.162L51.5249 127.504V133.389Z" fill="white"/>
<path d="M61.1173 128.167L58.4248 124.978L57.145 125.446V131.331L58.1488 130.964V126.507L61.0759 129.892L62.1215 129.509V123.624L61.1173 123.992V128.167Z" fill="white"/>
<path d="M63.6936 123.987L65.6174 123.283V128.23L66.6211 127.862V122.915L68.5528 122.208V121.27L63.6936 123.049V123.987Z" fill="white"/>
<path d="M70.125 126.579L73.7879 125.238V124.308L71.1287 125.282V123.721L73.5374 122.84V121.936L71.1287 122.817V121.256L73.7879 120.283V119.355L70.125 120.694V126.579Z" fill="white"/>
<path d="M79.521 120.119C79.7508 119.757 79.874 119.338 79.8763 118.909C79.8816 118.686 79.8372 118.464 79.7463 118.26C79.667 118.083 79.5393 117.932 79.3781 117.826C79.2028 117.716 79.0001 117.658 78.7934 117.658C78.5287 117.658 78.2662 117.708 78.0195 117.804L75.7444 118.637V124.523L76.7568 124.153V121.827L77.4925 121.557L78.7399 123.425L79.8773 123.009L78.5393 121.075C78.9385 120.841 79.2753 120.513 79.521 120.119ZM78.5798 120.036C78.3844 120.274 78.1265 120.453 77.8354 120.552L76.7568 120.947V119.147L77.8354 118.752C77.9508 118.696 78.0766 118.665 78.2047 118.66C78.3329 118.655 78.4606 118.677 78.5798 118.725C78.675 118.78 78.7519 118.863 78.801 118.962C78.8501 119.061 78.8692 119.173 78.856 119.283C78.8547 119.558 78.7571 119.825 78.5804 120.035L78.5798 120.036Z" fill="white"/>
<path d="M51.4732 102.618C51.4778 101.849 51.2494 101.248 50.8123 100.878C50.5518 100.659 50.2263 100.532 49.8868 100.519C50.2858 100.164 50.6078 99.7294 50.8328 99.2434C51.0578 98.7575 51.1809 98.2301 51.1945 97.6942C51.2004 96.7684 50.9046 96.0892 50.338 95.7302C49.7805 95.3768 48.9939 95.3376 48.0646 95.6709L44.4307 97.0013V108.3C44.4307 108.3 46.452 107.555 48.3169 106.877C50.1817 106.198 51.4611 104.516 51.4732 102.618ZM46.5037 98.2522L47.8091 97.7774C48.2316 97.626 48.5712 97.627 48.7893 97.7653C49.0033 97.9004 49.1148 98.1832 49.1122 98.5818C49.1043 98.9928 48.9675 99.3908 48.7213 99.719C48.4752 100.047 48.1322 100.289 47.7415 100.409L46.5037 100.859V98.2522ZM47.9071 105.073L46.5037 105.584V102.818L48.0159 102.268C48.432 102.119 48.775 102.126 49.0029 102.272C49.2416 102.423 49.3651 102.733 49.3627 103.17C49.3568 104.042 48.8074 104.745 47.9067 105.073H47.9071Z" fill="white"/>
<path d="M101.518 83.8608L97.0716 77.7297L94.9651 78.5008V89.7997L97.0537 89.0349V81.1045L101.628 87.3605L103.63 86.6277V75.3286L101.518 76.1016V83.8608Z" fill="white"/>
<path d="M87.9378 80.9345C86.4712 81.4994 85.2102 82.4996 84.322 83.8023C83.3084 85.2187 82.7549 86.9156 82.7372 88.6607C82.7259 90.447 83.3261 91.8157 84.4272 92.5139C84.9791 92.8548 85.6163 93.0303 86.2639 93.0198C86.8316 93.0133 87.394 92.9091 87.9267 92.7116C89.3971 92.1462 90.6622 91.1453 91.5548 89.8411C92.5686 88.4298 93.1228 86.7372 93.1412 84.9961C93.1527 83.2013 92.5517 81.828 91.4496 81.1296C90.5044 80.5312 89.2586 80.4621 87.9378 80.9345ZM87.906 90.4258C87.1586 90.6939 86.4575 90.6583 85.9344 90.326C85.2819 89.9126 84.9415 89.0733 84.9485 87.8996C84.9646 85.3857 86.5504 83.6754 88.0175 83.1499C88.3275 83.0347 88.6548 82.9737 88.9852 82.9695C89.3447 82.9629 89.6986 83.0594 90.0055 83.2478C90.6565 83.6609 90.9969 84.4987 90.9893 85.6714C90.9728 88.1841 89.3794 89.8984 87.906 90.4262V90.4258Z" fill="white"/>
<path d="M72.2825 94.9602C72.2876 94.1021 72.013 93.428 71.4872 93.0101C70.9881 92.6134 70.2747 92.4675 69.4242 92.5871L68.0372 92.7861C67.915 92.8148 67.7883 92.8181 67.6648 92.7958C67.5413 92.7736 67.4236 92.7262 67.319 92.6566C67.2289 92.5732 67.1592 92.4701 67.1153 92.3553C67.0713 92.2404 67.0543 92.1169 67.0655 91.9944C67.0699 91.3266 67.6356 90.4321 68.5764 90.0949C69.0363 89.9304 69.414 89.9288 69.7053 90.0791C69.8475 90.1644 69.9694 90.28 70.0622 90.4179C70.1551 90.5557 70.2167 90.7124 70.2427 90.8769L72.1741 89.71C72.0886 89.2458 71.826 88.4047 71.0255 87.9866C70.3797 87.649 69.5337 87.6628 68.5106 88.0305C66.5693 88.7261 64.9795 90.884 64.967 92.8395C64.9616 93.6955 65.2227 94.3605 65.7237 94.7633C66.1901 95.1387 66.858 95.2838 67.6551 95.1787L69.0434 94.9966C69.1858 94.9655 69.3329 94.9634 69.4762 94.9902C69.6195 95.0171 69.756 95.0724 69.8777 95.153C69.9688 95.2338 70.04 95.3348 70.0857 95.448C70.1314 95.5612 70.1503 95.6835 70.1411 95.8053C70.1364 96.6036 69.522 97.3389 68.575 97.678C68.3519 97.7718 68.1126 97.8201 67.8708 97.8201C67.6291 97.8201 67.3897 97.7718 67.1667 97.678C66.7749 97.5064 66.5524 96.9865 66.4424 96.4883L64.5598 97.6252C64.6493 98.5816 65.0986 99.3577 65.7921 99.7554C66.1807 99.9716 66.6191 100.081 67.063 100.072C67.5928 100.06 68.1167 99.9578 68.6122 99.7688C70.9816 98.9186 72.2711 96.6571 72.2825 94.9602Z" fill="white"/>
<path d="M78.6964 95.7559L78.7012 86.5358L81.8978 85.3725V83.2849L73.5002 86.3591V88.4245L76.6292 87.2862V96.5128L78.6964 95.7559Z" fill="white"/>
<path d="M58.0899 91.805C56.6234 92.3699 55.3623 93.3701 54.4741 94.6728C53.4609 96.0888 52.9074 97.7852 52.8893 99.5297C52.878 101.317 53.4782 102.685 54.5793 103.383C55.1312 103.724 55.7684 103.9 56.416 103.889C56.9838 103.883 57.5462 103.779 58.0791 103.581C59.5494 103.016 60.8144 102.015 61.7069 100.711C62.7207 99.2996 63.275 97.6069 63.2935 95.8658C63.3048 94.0711 62.7038 92.6978 61.6017 91.9994C60.6567 91.4018 59.4097 91.3326 58.0899 91.805ZM58.0581 101.296C57.3111 101.564 56.6095 101.529 56.0864 101.196C55.4344 100.783 55.0936 99.9438 55.1006 98.7696C55.1167 96.2562 56.7029 94.5457 58.1696 94.0201C58.4797 93.905 58.8072 93.844 59.1377 93.8398C59.497 93.8333 59.8508 93.9298 60.1576 94.1181C60.8086 94.5309 61.149 95.369 61.1414 96.5417C61.1249 99.0554 59.5315 100.769 58.0581 101.297V101.296Z" fill="white"/>
</g>
<defs>
<clipPath id="clip0_505_371">
<rect width="105.444" height="146.174" fill="white" transform="translate(0 0.121582)"/>
</clipPath>
</defs>
</svg>
